<?xml version="1.0" encoding="iso-8859-1"?>
<!-- Uploaded to: SVG Repo, www.svgrepo.com, Generator: SVG Repo Mixer Tools -->
<!DOCTYPE svg PUBLIC "-//W3C//DTD SVG 1.1//EN" "http://www.w3.org/Graphics/SVG/1.1/DTD/svg11.dtd">
<svg fill="#ffffff" height="800px" width="800px" version="1.1" id="Capa_1" xmlns="http://www.w3.org/2000/svg" xmlns:xlink="http://www.w3.org/1999/xlink" 
	 viewBox="0 0 466 466" xml:space="preserve">
<path d="M357.708,49.816c-1.102-1.155-2.238-2.288-3.391-3.41c-0.205-0.222-0.427-0.431-0.659-0.63C324.12,17.43,278.49,0,233,0
	c-45.479,0-91.099,17.422-120.638,45.757c-0.26,0.222-0.508,0.453-0.734,0.702c-1.134,1.104-2.251,2.22-3.336,3.357
	c-23.202,24.327-34.607,55.307-32.982,89.59c1.542,32.538,8.686,89.676,17.54,125.248c6.737,27.066,21.727,35.55,93.755,76.313
	c11.311,6.401,24.022,13.597,38.396,21.814v17.189c-38.82-22.136-82.793-47.034-83.279-47.309
	c-3.845-2.178-8.727-0.823-10.903,3.021c-2.177,3.845-0.824,8.727,3.021,10.903c0.519,0.294,50.699,28.705,91.162,51.806v17.186
	c-11.894-6.782-24.229-13.799-35.652-20.291c-3.844-2.185-8.725-0.838-10.908,3.004c-2.183,3.842-0.838,8.725,3.004,10.908
	c13.984,7.944,29.329,16.677,43.557,24.8v24c0,4.418,3.582,8,8,8s8-3.582,8-8v-23.999c14.228-8.124,29.575-16.856,43.558-24.803
	c3.842-2.183,5.187-7.066,3.003-10.907c-2.183-3.842-7.067-5.188-10.907-3.003c-11.424,6.492-23.759,13.509-35.653,20.292v-17.187
	c40.46-23.1,90.638-51.509,91.157-51.803c3.845-2.177,5.197-7.059,3.021-10.903c-2.176-3.844-7.057-5.198-10.903-3.021
	c-0.486,0.275-44.457,25.17-83.274,47.306v-17.189c14.373-8.218,27.085-15.413,38.396-21.814
	c72.028-40.764,87.018-49.246,93.755-76.313c8.854-35.571,15.998-92.71,17.54-125.248C392.315,105.123,380.91,74.144,357.708,49.816
	z M338.379,53.453c-8.8,13.3-25.308,21.354-44.114,30.52c-18.007,8.777-37.77,18.412-53.266,34.544V57.455c0-4.418-3.582-8-8-8
	s-8,3.582-8,8v61.063c-15.496-16.133-35.26-25.769-53.268-34.546c-18.805-9.166-35.313-17.22-44.113-30.519
	C154.284,30.156,193.624,16,233,16C272.376,16,311.715,30.155,338.379,53.453z M116.142,64.961
	c11.345,15.238,29.518,24.103,48.581,33.395c22.996,11.208,46.751,22.796,60.277,46.698v68.695
	c-20.164-18.354-47.24-28.705-71.744-38.071c-27.292-10.431-53.093-20.301-62.02-38.571
	C90.265,109.425,98.632,85.185,116.142,64.961z M194.485,327.043c-71.854-40.665-81.221-46.615-86.11-66.254
	c-6.633-26.648-12.28-65.791-15.218-96.904c14.238,11.394,33.94,18.924,54.386,26.738c29.528,11.286,60.029,22.951,77.457,46.892
	v106.844C213.811,337.981,203.683,332.249,194.485,327.043z M357.625,260.789c-4.89,19.639-14.257,25.589-86.11,66.254
	c-9.198,5.206-19.327,10.938-30.515,17.315V237.563c13.969-19.179,36.519-30.413,56.91-38.867c4.082-1.691,6.019-6.372,4.326-10.453
	c-1.691-4.082-6.376-6.021-10.453-4.326c-17.126,7.1-35.703,16.082-50.783,29.841V145.05c13.527-23.898,37.28-35.487,60.275-46.695
	c19.064-9.291,37.238-18.156,48.582-33.395c17.512,20.226,25.879,44.469,24.906,72.154c-8.151,16.753-29.644,26.126-56.786,36.558
	c-4.124,1.586-6.183,6.214-4.598,10.338c1.223,3.181,4.254,5.132,7.47,5.132c0.954,0,1.925-0.172,2.868-0.534
	c19.065-7.328,36.385-14.612,49.131-24.79C369.913,194.942,364.262,234.122,357.625,260.789z"/>
</svg>